<?xml version="1.0" standalone="no"?>
<!DOCTYPE svg PUBLIC "-//W3C//DTD SVG 1.1//EN" "http://www.w3.org/Graphics/SVG/1.1/DTD/svg11.dtd" >
<svg xmlns="http://www.w3.org/2000/svg">
<metadata></metadata>
<defs>
<font id="yantramanavbold" horiz-adv-x="1058" >
<font-face units-per-em="2048" ascent="1638" descent="-410" />
<missing-glyph horiz-adv-x="520" />
<glyph horiz-adv-x="0" />
<glyph unicode="&#xd;" horiz-adv-x="505" />
<glyph unicode=" "  horiz-adv-x="520" />
<glyph unicode="&#x09;" horiz-adv-x="520" />
<glyph unicode="&#xa0;" horiz-adv-x="520" />
<glyph unicode="!" horiz-adv-x="735" d="M231 0v232h264v-232h-264zM231 453v857h264v-857h-264z" />
<glyph unicode="&#x22;" horiz-adv-x="987" d="M174 1085v319h263v-306l-122 -212h-114zM529 1097v307h264v-306l-122 -212h-114z" />
<glyph unicode="#" horiz-adv-x="1097" d="M43 369v152h231l46 261h-209v154h236l65 374h165l-66 -374h173l67 374h164l-65 -374h198v-154h-225l-46 -261h202v-152h-228l-65 -369h-166l65 369h-173l-64 -369h-165l65 369h-205zM439 521h172l46 261h-173z" />
<glyph unicode="$" d="M86 383l2 4h257q0 -116 52.5 -170.5t143.5 -54.5v-1q81 0 125 43t44 117t-41.5 120t-143.5 87q-211 77 -302.5 167.5t-91.5 244.5t96 250.5t262 113.5v194h143v-195q160 -24 249.5 -133t87.5 -282l-2 -5h-257q0 106 -43 164t-119 58t-115 -43.5t-39 -117.5t40 -117 t146.5 -85t175.5 -80t120 -87t73.5 -109.5t22.5 -140.5q0 -155 -95 -249.5t-263 -111.5v-178h-143v177q-178 18 -283 123.5t-102 296.5z" />
<glyph unicode="%" horiz-adv-x="1362" d="M86 987v69q0 120 76 195.5t209 75.5t208.5 -75t75.5 -196v-69q0 -119 -75.5 -194t-208 -75t-209 75t-76.5 194zM260 987q0 -54 29.5 -88.5t81.5 -34.5t81 34.5t29 88.5v69q0 55 -29.5 90.5t-81.5 35.5t-81 -35.5t-29 -90.5v-69zM287 164l640 1024l128 -68l-640 -1024z M712 250v69q0 119 76.5 194.5t209 75.5t209 -75.5t76.5 -194.5v-69q0 -120 -76 -195t-208.5 -75t-209.5 75.5t-77 194.5zM887 250q0 -52 31.5 -88t80.5 -36q109 0 109 124v69q0 54 -29.5 89.5t-81.5 35.5t-81 -35t-29 -90v-69z" />
<glyph unicode="&#x26;" horiz-adv-x="1211" d="M55 351q0 102 55 178.5t182 165.5q-64 84 -93 152t-29 138q0 157 97 249.5t260 92.5q143 0 233 -87t90 -216q0 -169 -165 -289l-84 -59l249 -290q68 114 68 250h196q0 -253 -124 -414l187 -220l-2 -4h-291l-69 80q-155 -99 -341.5 -99t-302.5 102t-116 270zM318 370 q0 -87 49.5 -138t139 -51t177.5 48l-270 313l-17 -11q-79 -74 -79 -161zM405 983q0 -65 77 -165l78 50q48 31 66.5 64.5t18.5 79t-33 79.5t-88 34t-87 -38.5t-32 -103.5z" />
<glyph unicode="'" horiz-adv-x="632" d="M174 1146v258h263v-234l-122 -262h-114z" />
<glyph unicode="(" horiz-adv-x="884" d="M219 513v19q0 171 36.5 326.5t99 271.5t142 198t167.5 120l6 -1l48 -130q-126 -94 -202 -294t-76 -490v-24q0 -291 75.5 -490t202.5 -297l-48 -128h-6q-88 38 -167.5 120.5t-142 198.5t-99 272.5t-36.5 327.5z" />
<glyph unicode=")" horiz-adv-x="883" d="M165 -276q124 96 201 296.5t77 490.5v24q0 287 -77.5 488t-200.5 299l48 128h6q89 -37 171 -121.5t147 -201.5t103.5 -272.5t38.5 -321.5v-19q0 -167 -38.5 -322.5t-103.5 -272.5t-147 -201.5t-171 -121.5h-6z" />
<glyph unicode="*" horiz-adv-x="817" d="M24 1007l52 160l267 -111l-16 312h168l-17 -317l262 108l50 -162l-275 -80l180 -239l-137 -99l-157 261l-155 -253l-138 96l188 244z" />
<glyph unicode="+" horiz-adv-x="1005" d="M50 519v226h326v355h249v-355h324v-226h-324v-373h-249v373h-326z" />
<glyph unicode="," horiz-adv-x="475" d="M57 -302l63 292v205h255v-213l-143 -284h-175z" />
<glyph unicode="-" horiz-adv-x="721" d="M102 510v203h507v-203h-507z" />
<glyph unicode="." horiz-adv-x="536" d="M130 0v230h262v-230h-262z" />
<glyph unicode="/" horiz-adv-x="743" d="M-13 -125l481 1423h256l-481 -1423h-256z" />
<glyph unicode="0" d="M86 508v289q0 257 117 393.5t325 136.5t326 -137t118 -393v-289q0 -257 -117 -393t-325.5 -136t-326 136t-117.5 393zM347 483q0 -157 45.5 -229.5t136.5 -72.5t136 73t45 229v341q0 301 -182 301q-91 0 -136 -73t-45 -228v-341z" />
<glyph unicode="1" d="M154 1078v186l529 46v-1310h-263v1078h-266z" />
<glyph unicode="2" d="M67 905q-4 182 118.5 302.5t325.5 120.5t318.5 -104t115.5 -282q0 -113 -59 -209t-222 -272l-233 -255l2 -4h551l-1 -203h-895v172l424 454q91 106 130 178t39 135q0 85 -45 136.5t-130.5 51.5t-133 -60t-47.5 -166h-256z" />
<glyph unicode="3" d="M63 350l2 5h255q0 -76 53.5 -125t141 -49t140 49.5t52.5 137.5q0 200 -205 200h-147l1 198h147q184 0 184 185q0 81 -45.5 128t-125.5 47t-129.5 -43.5t-49.5 -113.5h-255l-2 6q-5 153 116.5 253t317.5 100t315.5 -97.5t119.5 -276.5q0 -87 -54.5 -163.5t-148.5 -119.5 q108 -38 165.5 -117.5t57.5 -187.5q0 -178 -129 -282t-337 -104q-124 0 -223.5 42.5t-159 128t-57.5 199.5z" />
<glyph unicode="4" d="M51 442l544 868h265v-822h148v-204h-148v-284h-262v284h-535zM296 488h302v471l-6 2l-20 -37z" />
<glyph unicode="5" d="M99 349l2 4l253 13q0 -87 49 -136t134 -49t130 62.5t45 176t-47.5 180.5t-137.5 67q-136 0 -173 -104l-231 16l76 730h731v-210h-516l-36 -303q81 61 201 62q189 3 293 -113t104 -319.5t-116 -325t-326 -121.5q-123 0 -221.5 43.5t-157 128.5t-56.5 198z" />
<glyph unicode="6" d="M87 766q0 255 146.5 408t380.5 153q134 0 262 -55l-47 -192q-121 41 -214 41q-121 0 -192 -90t-66 -247l3 -5q93 98 265.5 98t273 -122.5t100.5 -321.5t-123 -326.5t-326.5 -127.5t-332 142t-128.5 389v256h-2zM350 504q0 -155 55 -239t151 -84q80 0 129.5 72.5 t49.5 180.5h1q0 110 -49.5 177t-132.5 67q-144 0 -204 -87v-87z" />
<glyph unicode="7" d="M54 1108v202h926v-202q-105 -123 -174 -233t-113.5 -229t-68.5 -234.5t-42 -278.5l-12 -133h-263l13 133q59 572 407 975h-673z" />
<glyph unicode="8" d="M82 355q0 106 59 187.5t166 126.5q-93 44 -143.5 119t-50.5 172q0 174 112 270.5t303 96.5t304 -96.5t113 -270.5q0 -97 -51 -172.5t-143 -119.5q106 -45 165.5 -126.5t59.5 -186.5q0 -180 -121 -278.5t-326 -98.5t-326 98.5t-121 278.5zM346 373q0 -89 49.5 -140.5 t133.5 -51.5t134 52t50 140.5t-51 142t-134 53.5t-132.5 -53.5t-49.5 -142.5zM375 948.5q0 -82.5 41 -130t113 -47.5t113 47.5t41 129t-42 129.5t-113.5 48t-112 -47t-40.5 -129.5z" />
<glyph unicode="9" d="M74 867.5q0 201.5 124 330.5t322.5 129t321.5 -139.5t123 -386.5v-310q0 -236 -137.5 -374t-359.5 -138q-148 0 -275 55l30 190h1q110 -43 244 -43q107 0 170.5 78t63.5 219v64q-90 -113 -236 -113q-183 0 -287.5 118.5t-104.5 320zM336 868q0 -111 46 -178.5t128 -67.5 q127 0 192 89v120q0 143 -49.5 218.5t-132.5 75.5t-133.5 -73t-50.5 -184z" />
<glyph unicode=":" horiz-adv-x="524" d="M117 0v207h236v-207h-236zM117 788v207h236v-207h-236z" />
<glyph unicode=";" horiz-adv-x="506" d="M97 -302l57 263v185h230v-192l-129 -256h-158zM118 758v207h236v-207h-236z" />
<glyph unicode="&#x3c;" horiz-adv-x="939" d="M49 399v205l775 329v-245l-519 -186v-5l519 -183v-245z" />
<glyph unicode="=" horiz-adv-x="1063" d="M122 332v206h807v-206h-807zM122 720v206h807v-206h-807z" />
<glyph unicode="&#x3e;" horiz-adv-x="952" d="M107 69v243l528 188v6l-528 185v242l785 -329v-205z" />
<glyph unicode="?" horiz-adv-x="1180" d="M166 972q-3 171 110.5 264t311.5 93t312.5 -101.5t114.5 -279.5q0 -110 -63 -205t-173 -168q-53 -41 -70.5 -82t-17.5 -121h-264q0 65 7.5 107t31 79.5t54.5 66.5t91 74q74 63 107.5 119t33.5 134t-44 124.5t-119.5 46.5t-120 -40.5t-45.5 -115.5h-255zM428 0v225h264 v-225h-264z" />
<glyph unicode="@" horiz-adv-x="1635" d="M58 385q9 192 68.5 349t161 267t246 170t317.5 60h-1h1q232 0 394 -98t240.5 -281t69.5 -436q-8 -204 -115 -338q-52 -67 -134.5 -104.5t-187.5 -37.5q-70 0 -121 39.5t-73 110.5q-81 -148 -237 -148q-128 0 -195 107t-49 284q22 230 128 367t259 137q99 0 162 -21 t146 -74l-2 -4h4l-46 -516q-10 -148 64 -148q102 0 165 96t70 250q14 324 -124 499.5t-417 175.5t-442 -190.5t-176 -515.5q-16 -322 131 -505.5t423 -183.5q75 0 156.5 17.5t141.5 45.5l34 -132q-59 -37 -150.5 -58.5t-183.5 -21.5q-358 0 -550.5 222.5t-177.5 615.5z M645 329q-18 -232 100 -232q53 0 93 25t72 85l40 458q-46 13 -83 13h-1q-99 0 -152 -85t-69 -264z" />
<glyph unicode="A" horiz-adv-x="1180" d="M11 0l451 1310h269l449 -1310h-266l-89 283h-460l-89 -283h-265zM430 489h331l-162 515h-6z" />
<glyph unicode="B" horiz-adv-x="1183" d="M122 0v1310h443q236 0 363.5 -90.5t127.5 -268.5q0 -92 -48.5 -163t-139.5 -107q115 -25 175 -105.5t60 -193.5q0 -188 -122.5 -285t-353.5 -97h-505zM385 202h242q215 0 215 180q0 198 -195 198h-262v-378zM385 761h189q107 0 163 43.5t56 130.5t-56 130t-172 43h-180 v-347z" />
<glyph unicode="C" horiz-adv-x="1178" d="M82 523v260q0 240 144 392t381 152t374 -124q133 -120 133 -328v-12l-2 -6h-255q0 268 -256 268q-117 0 -186.5 -94.5t-69.5 -245.5v-262q0 -153 73 -247.5t197 -94.5t183 65t59 197h253l1 -5v-12q-1 -204 -129 -324q-132 -123 -369 -123t-384 151t-147 393z" />
<glyph unicode="D" horiz-adv-x="1208" d="M122 0v1310h450q243 0 397.5 -152.5t154.5 -394.5v-217q0 -242 -154.5 -394t-397.5 -152h-450zM385 202h174q140 0 220.5 94t80.5 250v219q0 155 -80.5 249t-220.5 94h-174v-906z" />
<glyph unicode="E" d="M122 0v1310h896v-202h-633v-329h543v-203h-543v-374h635v-202h-898z" />
<glyph unicode="F" horiz-adv-x="1064" d="M122 0v1310h904v-202h-641v-361h549v-202h-549v-545h-263z" />
<glyph unicode="G" horiz-adv-x="1232" d="M89 516v274q0 239 146 388t379.5 149t362.5 -114t132 -309l-2 -5h-247q-9 107 -69 166.5t-176 59.5t-190 -92.5t-74 -240.5v-276q0 -151 76.5 -243t206.5 -92q165 0 232 65v243h-232v182h495v-494q-66 -86 -192 -142t-303 -56q-242 0 -393.5 149t-151.5 388z" />
<glyph unicode="H" horiz-adv-x="1305" d="M122 0v1310h263v-563h535v563h262v-1310h-262v545h-535v-545h-263z" />
<glyph unicode="I" horiz-adv-x="541" d="M139 0v1310h262v-1310h-262z" />
<glyph unicode="J" horiz-adv-x="1052" d="M57 373l2 6h255q0 -198 183 -198q75 0 124.5 57t49.5 153v917h262v-917q0 -188 -121.5 -300t-323 -112t-318.5 101q-113 98 -113 278v15z" />
<glyph unicode="K" horiz-adv-x="1191" d="M122 0v1310h263v-535h115l347 535h321l-441 -610l476 -700h-320l-352 547h-146v-547h-263z" />
<glyph unicode="L" horiz-adv-x="997" d="M122 0v1310h263v-1108h583v-202h-846z" />
<glyph unicode="M" horiz-adv-x="1608" d="M122 0v1310h343l334 -965h6l336 965h344v-1310h-263v391l25 578l-5 1l-351 -970h-176l-350 967l-5 -1l25 -575v-391h-263z" />
<glyph unicode="N" horiz-adv-x="1305" d="M122 0v1310h263l529 -894l6 1v893h262v-1310h-262l-529 896l-6 -1v-895h-263z" />
<glyph unicode="O" horiz-adv-x="1259" d="M83 535v236q0 243 151 399.5t393.5 156.5t395.5 -156.5t153 -399.5v-236q0 -244 -152.5 -400t-396.5 -156q-160 0 -284 71.5t-192 198t-68 286.5zM345 535q0 -159 75.5 -255.5t208 -96.5t209 96.5t76.5 255.5v238q0 156 -77 252.5t-210 96.5t-207.5 -95.5t-74.5 -253.5 v-238z" />
<glyph unicode="P" horiz-adv-x="1201" d="M122 0v1310h522q225 0 355.5 -113.5t130.5 -304t-130 -304t-356 -113.5h-259v-475h-263zM385 678h259q108 0 166 58t58 155.5t-58 157t-166 59.5h-259v-430z" />
<glyph unicode="Q" horiz-adv-x="1290" d="M83 514v236q0 243 151 399.5t393.5 156.5t395.5 -156.5t153 -399.5v-236q0 -239 -149 -396l217 -213l-172 -140l-236 229q-96 -36 -209 -36q-160 0 -284 71.5t-192 198t-68 286.5zM345 514q0 -159 75 -255.5t208 -96.5t209.5 96.5t76.5 255.5v237q0 156 -77 253t-210 97 t-207.5 -96t-74.5 -254v-237z" />
<glyph unicode="R" horiz-adv-x="1219" d="M122 -1v1310h495q225 0 351 -102t126 -285q0 -199 -209 -291q218 -65 218 -312v-97q0 -63 16 -119.5t49 -83.5v-19h-271q-57 46 -57 224v93q0 98 -53.5 152.5t-151.5 54.5l-250 -1v-524h-263zM385 726h227q220 0 220 186q0 92 -55 144t-160 52h-232v-382z" />
<glyph unicode="S" horiz-adv-x="1169" d="M81 398l2 6h255q0 -226 271 -226h2q106 0 163.5 43.5t57.5 119t-52.5 121t-188.5 86.5q-247 71 -360.5 164.5t-113.5 252t137 260.5t352 102q214 1 350 -113q131 -109 131 -273v-12l-1 -5h-255q0 93 -61.5 148t-167.5 55t-164.5 -45.5t-58.5 -116t59.5 -113t215.5 -91.5 q223 -62 331.5 -161.5t108.5 -262.5t-131.5 -260.5t-352.5 -97.5q-145 0 -265 48.5t-193 145.5q-71 94 -71 218v7z" />
<glyph unicode="T" horiz-adv-x="1052" d="M25 1108v202h1003v-202h-371v-1108h-263v1108h-369z" />
<glyph unicode="U" horiz-adv-x="1266" d="M108 439v869h264v-869q0 -128 67.5 -193t193.5 -65t194.5 64.5t68.5 193.5v869h263v-869q0 -218 -143 -339t-383.5 -121t-382.5 120.5t-142 339.5z" />
<glyph unicode="V" horiz-adv-x="1173" d="M6 1310h278l283 -962l16 -71h6l15 70l285 963h277l-445 -1310h-270z" />
<glyph unicode="W" horiz-adv-x="1634" d="M22 1310h257l188 -897l6 -1l245 898h194l247 -898h6l187 898h256l-306 -1310h-244l-240 865h-5l-241 -865h-243z" />
<glyph unicode="X" horiz-adv-x="1173" d="M28 0l399 661l-389 649h304l242 -464l246 464h306l-389 -649l411 -661h-317l-253 473l-253 -473h-307z" />
<glyph unicode="Y" horiz-adv-x="1163" d="M5 1310h288l286 -603h5l286 603h288l-450 -849v-461h-262v474z" />
<glyph unicode="Z" horiz-adv-x="1085" d="M69 0v137l623 971h-622v202h943v-131l-626 -977h641v-202h-959z" />
<glyph unicode="[" horiz-adv-x="753" d="M215 -303v1826h390v-195h-127v-1437h127v-194h-390z" />
<glyph unicode="\" horiz-adv-x="777" d="M2 1298h260l547 -1423h-260z" />
<glyph unicode="]" horiz-adv-x="753" d="M149 -109h128v1437h-128v195h390v-1826h-390v194z" />
<glyph unicode="^" horiz-adv-x="806" d="M40 729l269 654h191l269 -654h-208l-149 372l-7 30h-5l-7 -30l-145 -372h-208z" />
<glyph unicode="_" horiz-adv-x="823" d="M1 -22h819v-197h-819v197z" />
<glyph unicode="`" horiz-adv-x="610" d="M69 1446l2 5h278l178 -239h-214z" />
<glyph unicode="a" horiz-adv-x="990" d="M51 276.5q0 141.5 110 219t322 77.5h146v77q0 72 -37 110t-104.5 38t-102.5 -31t-35 -86l-254 1v5v15q0 118 108 200q114 88 294.5 88t287.5 -90t107 -251v-403q0 -131 43 -248h-263q-32 74 -39 146q-96 -165 -265 -165q-152 0 -235 78t-83 219.5zM311 281h1 q0 -49 32.5 -78.5t94 -29.5t115.5 33.5t74 80.5v138h-146q-82 0 -126.5 -40.5t-44.5 -103.5z" />
<glyph unicode="b" horiz-adv-x="1040" d="M101 -2v1404h262v-534q86 122 236 122q184 0 282 -137.5t98 -375.5v-19q0 -223 -98 -351t-280 -128q-165 0 -255 140l-20 -121h-225zM363 274q49 -91 172 -91q98 0 140 68.5t42 206.5v19q0 150 -43.5 229t-140.5 79q-121 0 -170 -99v-412z" />
<glyph unicode="c" horiz-adv-x="954" d="M56 469v27q0 222 119.5 357.5t333.5 135.5q181 -1 291 -103q106 -99 105 -258v-12l-1 -5h-240q0 77 -42 126.5t-113 49.5q-190 0 -190 -290v-28q0 -289 190 -289q71 0 113 41t42 109h239l2 -5v-10q0 -141 -110 -237q-114 -100 -286 -100q-214 0 -333.5 134.5 t-119.5 356.5z" />
<glyph unicode="d" horiz-adv-x="1040" d="M61 458l1 19q0 235 100 374t280 139q143 0 234 -122v534h264v-1404h-226l-22 119q-94 -138 -253 -138q-178 0 -278 129.5t-100 349.5zM322 477l1 -19q0 -275 184 -275q112 0 167 90v415q-56 97 -166 97q-94 0 -140 -82t-46 -226z" />
<glyph unicode="e" horiz-adv-x="976" d="M70 456v36q0 145 53.5 258t154 176.5t232.5 63.5q196 0 305 -117.5t109 -322.5v-143h-581l-2 -6q7 -99 65 -159.5t148 -60.5t147 16.5t130 56.5l71 -162v-1q-63 -52 -158.5 -82.5t-210.5 -30.5q-210 0 -336.5 133t-126.5 345zM341 584l3 -5h322v24q0 86 -39.5 134.5 t-114.5 48.5t-118 -54t-53 -148z" />
<glyph unicode="f" horiz-adv-x="659" d="M22 789v185h145v108q0 164 94 252.5t266 88.5q58 0 145 -19l-22 -195q-65 9 -88 9q-130 0 -130 -136v-108h194v-185h-194v-789h-265v789h-145z" />
<glyph unicode="g" horiz-adv-x="1040" d="M61 416l2 19q0 235 101 374t281 139q158 0 250 -142l21 124h227v-969q0 -190 -124 -294t-348 -104q-160 0 -310 76l49 196q121 -59 258 -59q109 0 159.5 44.5t50.5 141.5v88q-89 -113 -237 -113q-178 0 -279 130t-101 349zM323 435l1 -19q0 -274 184 -274q117 0 169 86 v423q-54 93 -168 93q-94 0 -140 -82t-46 -227z" />
<glyph unicode="h" horiz-adv-x="1040" d="M95 0v1404h262l-2 -553q99 141 258.5 141t244 -103t84.5 -311v-578h-263v580q0 111 -39 159.5t-120 48.5q-106 0 -163 -74v-714h-262z" />
<glyph unicode="i" horiz-adv-x="492" d="M114 0v974h263v-974h-263zM114 1207v197h263v-197h-263z" />
<glyph unicode="j" horiz-adv-x="489" d="M-88 -422l12 201q44 -11 86 -11q111 0 111 152v1010h263v-1010q0 -171 -90 -264t-253 -93q-69 0 -129 15zM115 1165v195h264v-195h-264z" />
<glyph unicode="k" horiz-adv-x="987" d="M101 0v1404h263v-796h64l226 366h305l-312 -441l359 -533h-301l-269 408h-72v-408h-263z" />
<glyph unicode="l" horiz-adv-x="492" d="M114 0v1404h263v-1404h-263z" />
<glyph unicode="m" horiz-adv-x="1595" d="M101 0v974h245l11 -129q97 147 285 147t256 -167q95 167 286 167q148 0 229 -101t81 -301v-590h-263v590q0 108 -34.5 153t-108.5 45q-111 0 -162 -94l2 -54v-640h-262v590q0 106 -35 152t-109 46q-104 0 -159 -78v-710h-262z" />
<glyph unicode="n" horiz-adv-x="1040" d="M96 0v974l246 -1l12 -140q101 159 279 159q151 0 232 -95t81 -289v-608h-264v608q0 96 -38.5 138t-120.5 42q-104 0 -164 -81v-707h-263z" />
<glyph unicode="o" horiz-adv-x="1040" d="M60 475v19q0 223 122.5 359.5t336 136.5t337 -136.5t123.5 -359.5v-19q0 -224 -123 -360t-336.5 -136t-336.5 136t-123 360zM322 475q0 -139 48.5 -216.5t148.5 -77.5t148.5 78t48.5 216v19q0 136 -49 214.5t-148 78.5t-148 -79t-49 -214v-19z" />
<glyph unicode="p" horiz-adv-x="1040" d="M100 -416v1348h237l15 -115q90 133 247 133q179 0 279.5 -139t100.5 -374l-1 -19q0 -219 -100.5 -348.5t-278.5 -129.5q-153 0 -237 111v-467h-262zM363 226q49 -85 169 -85q93 0 138.5 72.5t45.5 204.5v19q0 144 -47 226.5t-139 82.5q-117 0 -167 -94v-426z" />
<glyph unicode="q" horiz-adv-x="1040" d="M60 418v19q0 236 100 374.5t280 138.5q157 0 249 -137l24 119h223v-1348h-263v465q-88 -109 -235 -109q-178 0 -278 129.5t-100 348.5zM322 418q0 -277 184 -277q113 0 166 85v432q-54 90 -164 90q-94 0 -140 -83t-46 -228v-19z" />
<glyph unicode="r" horiz-adv-x="645" d="M101 0v974h244l11 -144q75 162 215 162q34 0 70 -11l-28 -233l-96 3q-111 0 -154 -93v-658h-262z" />
<glyph unicode="s" horiz-adv-x="950" d="M57 302l1 6h241q4 -149 179 -149v-3q72 0 110.5 28.5t38.5 76.5t-43.5 78.5t-153.5 55.5q-178 36 -263 105t-85 192.5t106.5 209.5t287 86t290.5 -86q106 -83 106 -210v-12l-2 -5h-254q0 60 -38 96t-104.5 36t-103.5 -30.5t-37 -78.5t40 -75.5t153 -48.5 q184 -37 269.5 -107t85.5 -196.5t-112.5 -209t-299.5 -82.5q-187 -1 -303 95q-110 91 -109 215v13z" />
<glyph unicode="t" horiz-adv-x="644" d="M8 787v185h142v238h263v-238h164v-185h-164v-496q0 -105 87 -105q31 0 70 10l22 -190q-83 -27 -159 -27q-283 0 -283 311v497h-142z" />
<glyph unicode="u" horiz-adv-x="1040" d="M95 384v588h261v-590q0 -105 35 -152t108 -47q123 0 181 80v709h263v-974h-224l-23 140q-94 -159 -274 -159q-158 0 -242.5 100t-84.5 305z" />
<glyph unicode="v" horiz-adv-x="941" d="M14 974h275l164 -611l17 -90h5l18 90l160 611h275l-331 -974h-251z" />
<glyph unicode="w" horiz-adv-x="1356" d="M26 974h247l128 -624h6l182 624h175l184 -626h5l127 626h247l-248 -974h-219l-181 580h-6l-181 -580h-218z" />
<glyph unicode="x" horiz-adv-x="941" d="M17 0l303 492l-294 482h295l146 -310h6l149 310h297l-293 -482l303 -492h-296l-160 323l-159 -323h-297z" />
<glyph unicode="y" horiz-adv-x="941" d="M5 930h282l164 -565l11 -54h5l186 619h283l-395 -1120q-23 -57 -48.5 -98t-62.5 -77q-76 -72 -214 -72q-43 0 -130 21l30 191l50 -5q110 0 154 112l30 75z" />
<glyph unicode="z" horiz-adv-x="941" d="M68 0v155l463 615h-449v204h779v-150l-467 -622h483v-202h-809z" />
<glyph unicode="{" horiz-adv-x="850" d="M150 464v182q160 0 160 188v184q0 161 76 265.5t247 152.5l50 -141q-74 -28 -106 -96.5t-32 -180.5v-184q0 -198 -163 -279q163 -83 163 -278v-183q0 -111 32 -180.5t106 -96.5l-50 -143q-171 48 -247 153t-76 266v183q0 188 -160 188z" />
<glyph unicode="|" horiz-adv-x="681" d="M263 -243v1553h158v-1553h-158z" />
<glyph unicode="}" horiz-adv-x="851" d="M168 -183q74 28 106.5 97t32.5 180v183q0 200 166 279q-166 79 -166 279v184q0 112 -32.5 180.5t-106.5 96.5l50 141q170 -48 247 -153t77 -265v-184q0 -188 159 -188v-182q-159 0 -159 -188v-183q0 -160 -77.5 -265.5t-246.5 -153.5z" />
<glyph unicode="~" horiz-adv-x="1194" d="M96 441q0 148 77.5 243.5t209 95.5t270.5 -119q45 -42 78 -59t75.5 -17t75.5 47t33 112l184 -24q0 -146 -79.5 -244t-201.5 -98q-76 0 -140.5 28.5t-135.5 91.5q-50 42 -82.5 58.5t-75.5 16.5t-75 -45t-32 -110z" />
<glyph unicode="&#xa1;" horiz-adv-x="520" d="M115 817q0 61 40 99t106 38t106 -38t40 -99t-41.5 -99.5t-104.5 -38.5t-104.5 38.5t-41.5 99.5zM123 -369l30 907h217l30 -907h-277z" />
<glyph unicode="&#xa2;" horiz-adv-x="1060" d="M88 455v20q0 198 94.5 327.5t264.5 158.5v202h180v-203q147 -26 230 -125.5t85 -247.5h-245q-1 77 -45.5 123.5t-118.5 46.5q-93 0 -138 -67t-46 -211v-30l1 1q0 -149 45.5 -215.5t140.5 -66.5q72 0 116.5 39.5t45.5 105.5h245q-2 -131 -88.5 -225.5t-227.5 -120.5v-211 h-180v210q-169 27 -264 156t-95 333z" />
<glyph unicode="&#xa3;" horiz-adv-x="1095" d="M89 518v213h139l-7 204q0 182 110.5 287.5t300 105.5t298.5 -100.5t109 -275.5h-259q0 77 -38.5 117.5t-106.5 40.5t-106 -45t-38 -130l9 -204h278v-213h-270l5 -125q0 -111 -56 -176h588v-217h-953v217h83q64 16 64 161l-4 140h-146z" />
<glyph unicode="&#xa4;" horiz-adv-x="1276" d="M72 104l121 123q-90 141 -90 322.5t99 323.5l-130 132l127 130l128 -131q137 104 312 104t316 -105l130 133l127 -131l-133 -136q96 -143 96 -320t-88 -319l125 -126l-127 -131l-120 121q-142 -115 -324.5 -115t-325.5 114l-116 -119zM270 545q0 -107 48.5 -198 t134.5 -144q88 -53 187 -53t184.5 53t133.5 144q50 91 50 198t-48.5 197.5t-134.5 142.5t-186 52t-185 -51.5t-135 -143.5h-1q-48 -90 -48 -197z" />
<glyph unicode="&#xa5;" horiz-adv-x="1129" d="M18 1310h297l248 -545l250 545h296l-338 -642h211v-158h-287v-103h287v-157h-287v-250h-270v250h-303v157h303v103h-303v158h234z" />
<glyph unicode="&#xa6;" horiz-adv-x="464" d="M115 -270v716h234v-716h-234zM115 601v682h234v-682h-234z" />
<glyph unicode="&#xa7;" horiz-adv-x="1158" d="M82 -79l260 1q0 -165 229 -165q100 0 153 33t53 91.5t-58 95.5t-221 82t-247 94t-126 119q-41 64 -41 162q0 161 145 246q-122 92 -122 253t126.5 255t345 94t341 -101t122.5 -283h-260q0 79 -55.5 127t-153 48t-151.5 -35t-54 -99t49.5 -97t215.5 -77t254.5 -93 t132.5 -119h-1q42 -71 42 -166q0 -165 -146 -245q122 -92 122 -255t-123.5 -252t-350 -89t-354 96.5t-127.5 278.5zM345 461q0 -63 37 -96t149 -69l200 -60q74 41 74 126q0 56 -41 91.5t-147 71.5l-205 62q-67 -35 -67 -126z" />
<glyph unicode="&#xa8;" horiz-adv-x="860" d="M84 1352.5q0 49.5 34.5 82t89.5 32.5t89.5 -33.5t34.5 -81.5t-34.5 -80.5t-89 -32.5t-89.5 32t-35 81.5zM522 1352q0 48 35.5 81.5t88.5 33.5t89 -33t36 -81.5t-35 -81.5t-90 -33t-89.5 33t-34.5 81z" />
<glyph unicode="&#xa9;" horiz-adv-x="1445" d="M77 654q0 187 85 341.5t231.5 242.5t322.5 88t322.5 -88t231.5 -242.5t85 -341.5q0 -140 -50.5 -265.5t-136 -215t-203.5 -142t-249 -52.5t-249.5 52.5t-204 142t-135.5 215t-50 265.5zM187 654q0 -238 153.5 -400t375.5 -162t375.5 162t153.5 400q0 156 -70.5 285 t-191.5 202t-267 73t-267.5 -73t-191.5 -202t-70 -285zM390 600v107q0 158 85 253t228.5 95t222 -71.5t75.5 -205.5l-2 -5h-133q0 84 -39.5 122.5t-123 38.5t-129 -60.5t-45.5 -165.5v-108q0 -105 45.5 -166t129 -61t122.5 38t39 123h133l2 -5q4 -135 -74 -206t-222 -71 t-229 95t-85 253z" />
<glyph unicode="&#xaa;" horiz-adv-x="818" d="M123 899q0 98 76.5 151.5t230.5 53.5h92v46q0 114 -104 114q-60 0 -92.5 -23t-32.5 -66l-155 13q0 94 78 152t201.5 58t193 -65t69.5 -185v-284q0 -91 23 -160l-159 1q-10 23 -16 60q-68 -74 -177.5 -74t-168.5 55t-59 153zM281 900q0 -79 105 -79q35 0 73 16t63 39v123 h-95q-68 -1 -107 -27.5t-39 -71.5z" />
<glyph unicode="&#xab;" horiz-adv-x="921" d="M59 476v17l252 351h168l-216 -360l216 -359h-168zM444 476v17l252 351h168l-216 -360l216 -359h-168z" />
<glyph unicode="&#xac;" horiz-adv-x="1016" d="M113 608v154h752v-388h-180v234h-572z" />
<glyph unicode="&#xad;" horiz-adv-x="715" d="M92 510v203h507v-203h-507z" />
<glyph unicode="&#xae;" horiz-adv-x="1445" d="M76 655.5q0 181.5 84 336.5t234 246q150 89 322 89t322 -89q149 -90 233 -245t84 -339t-85 -340t-234 -245t-321.5 -89t-319.5 89.5t-233 246.5l-1 -1q-85 159 -85 340.5zM186 653.5q0 -152.5 70.5 -283t192.5 -205t266 -74.5t268 76t192 206q69 128 69 280t-67.5 279 t-191.5 204t-269 77t-267 -73.5t-192.5 -203.5t-70.5 -282.5zM450 284v765h253q137 0 214.5 -61.5t77.5 -174.5q0 -100 -101 -157q54 -28 76.5 -77t22.5 -125q0 -121 15 -156v-15h-140q-11 33 -11 174q0 68 -30 98.5t-99 30.5l-142 2v-304h-136zM586 706h122q68 0 110 29 t42 76q0 64 -32 89.5t-115 26.5h-127v-221z" />
<glyph unicode="&#xaf;" horiz-adv-x="923" d="M133 1290v150h657v-150h-657z" />
<glyph unicode="&#xb0;" horiz-adv-x="716" d="M113 1172.5q0 102.5 72.5 175.5t172 73t170.5 -72.5t71 -175.5t-71 -174t-170 -71t-172 71t-73 173.5zM246 1173.5q0 -47.5 32.5 -80t80 -32.5t78.5 32t31 80t-31.5 81.5t-78.5 33.5t-79.5 -33.5t-32.5 -81z" />
<glyph unicode="&#xb1;" horiz-adv-x="990" d="M80 631v217h302v309h227v-309h296v-217h-296v-328h-227v328h-302zM102 1v212h777v-212h-777z" />
<glyph unicode="&#xb4;" horiz-adv-x="611" d="M91 1226l177 279h284l-250 -279h-211z" />
<glyph unicode="&#xb5;" horiz-adv-x="1135" d="M125 -416v1348h260v-560q0 -117 37 -169t125 -52q136 0 186 95v686h260v-974h-242l-6 62q-80 -80 -203 -80q-92 0 -157 40v-396h-260z" />
<glyph unicode="&#xb6;" horiz-adv-x="903" d="M68 889q0 194 119.5 307.5t326.5 113.5h268v-1310h-197v468h-72q-207 0 -326 113.5t-119 307.5z" />
<glyph unicode="&#xb7;" horiz-adv-x="555" d="M126 682q0 62 41 100.5t106 38.5t106 -38.5t41 -100.5t-41.5 -100.5t-106 -38.5t-105.5 38.5t-41 100.5z" />
<glyph unicode="&#xb8;" horiz-adv-x="493" d="M88 -169l28 129l195 -1l-10 -52q135 -24 135 -155q0 -100 -82.5 -157t-231.5 -57l-7 150q101 0 101 73q0 37 -28.5 51.5t-99.5 18.5z" />
<glyph unicode="&#xba;" horiz-adv-x="842" d="M106 1013v65q0 145 85.5 232t226.5 87t226.5 -87.5t85.5 -236.5v-64q0 -145 -84.5 -232t-227 -87t-227.5 87.5t-85 235.5zM264 1009q0 -89 41.5 -138.5t113.5 -49.5t112.5 49t40.5 136v72q0 87 -41 136.5t-113 49.5t-113 -49.5t-41 -140.5v-65z" />
<glyph unicode="&#xbb;" horiz-adv-x="921" d="M68 124l216 359l-216 360h168l252 -351v-17l-252 -351h-168zM462 124l216 359l-216 360h168l252 -351v-17l-252 -351h-168z" />
<glyph unicode="&#xbc;" horiz-adv-x="1323" d="M282 185l640 1025l127 -69l-640 -1024z" />
<glyph unicode="&#xbd;" horiz-adv-x="1403" d="M245 185l640 1025l127 -69l-640 -1024z" />
<glyph unicode="&#xbe;" horiz-adv-x="1490" d="M427 185l640 1025l127 -69l-640 -1024z" />
<glyph unicode="&#xbf;" horiz-adv-x="917" d="M62 -32q0 142 138 280l87 83q45 41 62.5 85t19.5 124h229q0 -120 -27.5 -193.5t-98 -139t-96.5 -97.5q-53 -65 -53 -140q0 -142 139 -142q69 0 110 40.5t43 113.5h260q-2 -173 -110.5 -269.5t-300 -96.5t-297 91.5t-105.5 260.5zM340 815.5q0 60.5 40 99t106 38.5 t106 -38.5t40 -99t-41.5 -99t-104.5 -38.5t-104.5 38.5t-41.5 99z" />
<glyph unicode="&#xc0;" horiz-adv-x="1240" d="M10 0l451 1310h269l449 -1310h-266l-89 283h-460l-89 -283h-265zM339 1756l2 5h278l178 -239h-214zM429 489h331l-162 515h-6z" />
<glyph unicode="&#xc1;" horiz-adv-x="1240" d="M10 0l451 1310h269l449 -1310h-266l-89 283h-460l-89 -283h-265zM429 489h331l-162 515h-6zM542 1536l177 279h284l-250 -279h-211z" />
<glyph unicode="&#xc2;" horiz-adv-x="1240" d="M10 0l451 1310h269l449 -1310h-266l-89 283h-460l-89 -283h-265zM299 1554v14l266 249h151l270 -252v-11h-207l-138 131l-139 -131h-203zM429 489h331l-162 515h-6z" />
<glyph unicode="&#xc3;" horiz-adv-x="1240" d="M13 -1l451 1310h269l449 -1310h-266l-89 283h-460l-89 -283h-265zM304 1565q0 101 59 170.5t145 69.5q28 0 51.5 -7t75 -32t72.5 -31t50 -6t51 22.5t22 62.5l153 -11q0 -101 -59 -170t-145 -69q-36 0 -63 8t-72 32.5t-66 31t-50.5 6.5t-50.5 -23t-21 -63zM432 488h331 l-162 515h-6z" />
<glyph unicode="&#xc4;" horiz-adv-x="1240" d="M10 0l451 1310h269l449 -1310h-266l-89 283h-460l-89 -283h-265zM299 1662.5q0 49.5 34.5 82t89.5 32.5t89.5 -33.5t34.5 -81.5t-34.5 -80.5t-89 -32.5t-89.5 32t-35 81.5zM429 489h331l-162 515h-6zM737 1662q0 48 35.5 81.5t88.5 33.5t89 -33t36 -81.5t-35 -81.5 t-90 -33t-89.5 33t-34.5 81z" />
<glyph unicode="&#xc5;" horiz-adv-x="1240" d="M10 -1l451 1310h269l449 -1310h-266l-89 283h-460l-89 -283h-265zM429 488h331l-162 515h-6zM457 1710q0 77 58 130.5t142.5 53.5t143 -52.5t58.5 -130.5t-57.5 -130t-143.5 -52v-1q-87 0 -144 52.5t-57 129.5zM561 1709.5q0 -41.5 26.5 -69t70.5 -27.5t70.5 27.5 t26.5 69t-27 69.5t-70 28t-70 -28t-27 -69.5z" />
<glyph unicode="&#xc6;" horiz-adv-x="1733" d="M2 0l707 1310h915v-212h-539l14 -319h452v-213h-443l14 -354h557v-212h-808l-12 300h-402l-150 -300h-305zM570 522h280l-22 513z" />
<glyph unicode="&#xc7;" horiz-adv-x="1206" d="M73 523v260q0 240 144 392t381 152t374 -124t133 -340l-2 -6h-255q0 268 -256 268q-117 0 -186.5 -94.5t-69.5 -245.5v-262q0 -153 73 -247.5t197 -94.5t183 65t59 197h253l1 -5q4 -213 -128.5 -336t-369.5 -123t-384 151t-147 393zM529 -170l28 129l195 -1l-10 -52 q135 -24 135 -155q0 -100 -82.5 -157t-231.5 -57l-7 150q101 0 101 73q0 37 -28.5 51.5t-99.5 18.5z" />
<glyph unicode="&#xc8;" horiz-adv-x="1037" d="M110 0v1310h896v-202h-633v-329h543v-203h-543v-374h635v-202h-898zM271 1759l2 5h278l178 -239h-214z" />
<glyph unicode="&#xc9;" horiz-adv-x="1037" d="M110 0v1310h896v-202h-633v-329h543v-203h-543v-374h635v-202h-898zM474 1539l177 279h284l-250 -279h-211z" />
<glyph unicode="&#xca;" horiz-adv-x="1037" d="M110 0v1310h896v-202h-633v-329h543v-203h-543v-374h635v-202h-898zM231 1557v14l266 249h151l270 -252v-11h-207l-138 131l-139 -131h-203z" />
<glyph unicode="&#xcb;" horiz-adv-x="1037" d="M110 0v1310h896v-202h-633v-329h543v-203h-543v-374h635v-202h-898zM231 1665.5q0 49.5 34.5 82t89.5 32.5t89.5 -33.5t34.5 -81.5t-34.5 -80.5t-89 -32.5t-89.5 32t-35 81.5zM669 1665q0 48 35.5 81.5t88.5 33.5t89 -33t36 -81.5t-35 -81.5t-90 -33t-89.5 33t-34.5 81z " />
<glyph unicode="&#xcc;" horiz-adv-x="537" d="M-46 1759l2 5h278l178 -239h-214zM147 0v1310h262v-1310h-262z" />
<glyph unicode="&#xcd;" horiz-adv-x="537" d="M126 0v1310h262v-1310h-262zM136 1539l177 279h284l-250 -279h-211z" />
<glyph unicode="&#xce;" horiz-adv-x="537" d="M-85 1557v14l266 249h151l270 -252v-11h-207l-138 131l-139 -131h-203zM147 0v1310h262v-1310h-262z" />
<glyph unicode="&#xcf;" horiz-adv-x="537" d="M-85 1665.5q0 49.5 34.5 82t89.5 32.5t89.5 -33.5t34.5 -81.5t-34.5 -80.5t-89 -32.5t-89.5 32t-35 81.5zM147 0v1310h262v-1310h-262zM353 1665q0 48 35.5 81.5t88.5 33.5t89 -33t36 -81.5t-35 -81.5t-90 -33t-89.5 33t-34.5 81z" />
<glyph unicode="&#xd0;" horiz-adv-x="1225" d="M-19 578v165h162v567h403q175 0 310.5 -77.5t212 -222t76.5 -325.5v-60q0 -183 -75 -324.5t-212 -221.5q-140 -79 -308 -79h-407v578h-162zM413 217h131q160 0 243.5 104.5t83.5 303.5v61q0 201 -82 303.5t-243 102.5h-133v-349h197v-165h-197v-361z" />
<glyph unicode="&#xd1;" horiz-adv-x="1301" d="M112 -1v1310h263l529 -894l6 1v893h262v-1310h-262l-529 896l-6 -1v-895h-263zM326 1565q0 101 59 170.5t145 69.5q28 0 51.5 -7t75 -32t72.5 -31t50 -6t51 22.5t22 62.5l153 -11q0 -101 -59 -170t-145 -69q-36 0 -63 8t-72 32.5t-66 31t-50.5 6.5t-50.5 -23t-21 -63z " />
<glyph unicode="&#xd2;" horiz-adv-x="1273" d="M75 535v236q0 243 151 399.5t393.5 156.5t395.5 -156.5t153 -399.5v-236q0 -244 -152.5 -400t-396.5 -156q-160 0 -284 71.5t-192 198t-68 286.5zM337 535q0 -159 75.5 -255.5t208 -96.5t209 96.5t76.5 255.5v238q0 156 -77 252.5t-210 96.5t-207.5 -95.5t-74.5 -253.5 v-238zM346 1756l2 5h278l178 -239h-214z" />
<glyph unicode="&#xd3;" horiz-adv-x="1273" d="M74 535v236q0 243 151 399.5t393.5 156.5t395.5 -156.5t153 -399.5v-236q0 -244 -152.5 -400t-396.5 -156q-160 0 -284 71.5t-192 198t-68 286.5zM336 535q0 -159 75.5 -255.5t208 -96.5t209 96.5t76.5 255.5v238q0 156 -77 252.5t-210 96.5t-207.5 -95.5t-74.5 -253.5 v-238zM548 1536l177 279h284l-250 -279h-211z" />
<glyph unicode="&#xd4;" horiz-adv-x="1273" d="M74 535v236q0 243 151 399.5t393.5 156.5t395.5 -156.5t153 -399.5v-236q0 -244 -152.5 -400t-396.5 -156q-160 0 -284 71.5t-192 198t-68 286.5zM305 1554v14l266 249h151l270 -252v-11h-207l-138 131l-139 -131h-203zM336 535q0 -159 75.5 -255.5t208 -96.5t209 96.5 t76.5 255.5v238q0 156 -77 252.5t-210 96.5t-207.5 -95.5t-74.5 -253.5v-238z" />
<glyph unicode="&#xd5;" horiz-adv-x="1273" d="M77 534v236q0 243 151 399.5t393.5 156.5t395.5 -156.5t153 -399.5v-236q0 -244 -152.5 -400t-396.5 -156q-160 0 -284 71.5t-192 198t-68 286.5zM310 1565q0 101 59 170.5t145 69.5q28 0 51.5 -7t75 -32t72.5 -31t50 -6t51 22.5t22 62.5l153 -11q0 -101 -59 -170 t-145 -69q-36 0 -63 8t-72 32.5t-66 31t-50.5 6.5t-50.5 -23t-21 -63zM339 534q0 -159 75.5 -255.5t208 -96.5t209 96.5t76.5 255.5v238q0 156 -77 252.5t-210 96.5t-207.5 -95.5t-74.5 -253.5v-238z" />
<glyph unicode="&#xd6;" horiz-adv-x="1273" d="M74 535v236q0 243 151 399.5t393.5 156.5t395.5 -156.5t153 -399.5v-236q0 -244 -152.5 -400t-396.5 -156q-160 0 -284 71.5t-192 198t-68 286.5zM305 1662.5q0 49.5 34.5 82t89.5 32.5t89.5 -33.5t34.5 -81.5t-34.5 -80.5t-89 -32.5t-89.5 32t-35 81.5zM336 535 q0 -159 75.5 -255.5t208 -96.5t209 96.5t76.5 255.5v238q0 156 -77 252.5t-210 96.5t-207.5 -95.5t-74.5 -253.5v-238zM743 1662q0 48 35.5 81.5t88.5 33.5t89 -33t36 -81.5t-35 -81.5t-90 -33t-89.5 33t-34.5 81z" />
<glyph unicode="&#xd7;" horiz-adv-x="979" d="M58 355l278 283l-278 284l154 147l273 -279l274 279l155 -147l-279 -284l279 -283l-155 -148l-274 278l-273 -278z" />
<glyph unicode="&#xd8;" horiz-adv-x="1270" d="M82 621v52q0 194 69 341t198 226q123 79 286.5 79t286.5 -74l67 112h168l-120 -205q161 -179 161 -483v-53q0 -194 -68 -339.5t-195.5 -225.5t-284 -80t-274.5 64l-76 -131h-170l129 218q-177 176 -177 499zM355 616q0 -154 44 -256l403 681q-67 55 -161 55 q-137 0 -210 -106t-74 -310zM495 236q63 -42 147 -42q137 0 209.5 106.5t73.5 311.5v63q0 138 -34 231z" />
<glyph unicode="&#xd9;" horiz-adv-x="1213" d="M98 439v869h264v-869q0 -128 67.5 -193t193.5 -65t194.5 64.5t68.5 193.5v869h263v-869q0 -218 -143 -339t-383.5 -121t-382.5 120.5t-142 339.5zM308 1756l2 5h278l178 -239h-214z" />
<glyph unicode="&#xda;" horiz-adv-x="1213" d="M96 439v869h264v-869q0 -128 67.5 -193t193.5 -65t194.5 64.5t68.5 193.5v869h263v-869q0 -218 -143 -339t-383.5 -121t-382.5 120.5t-142 339.5zM509 1536l177 279h284l-250 -279h-211z" />
<glyph unicode="&#xdb;" horiz-adv-x="1213" d="M96 439v869h264v-869q0 -128 67.5 -193t193.5 -65t194.5 64.5t68.5 193.5v869h263v-869q0 -218 -143 -339t-383.5 -121t-382.5 120.5t-142 339.5zM266 1554v14l266 249h151l270 -252v-11h-207l-138 131l-139 -131h-203z" />
<glyph unicode="&#xdc;" horiz-adv-x="1213" d="M96 439v869h264v-869q0 -128 67.5 -193t193.5 -65t194.5 64.5t68.5 193.5v869h263v-869q0 -218 -143 -339t-383.5 -121t-382.5 120.5t-142 339.5zM266 1662.5q0 49.5 34.5 82t89.5 32.5t89.5 -33.5t34.5 -81.5t-34.5 -80.5t-89 -32.5t-89.5 32t-35 81.5zM704 1662 q0 48 35.5 81.5t88.5 33.5t89 -33t36 -81.5t-35 -81.5t-90 -33t-89.5 33t-34.5 81z" />
<glyph unicode="&#xdd;" horiz-adv-x="1139" d="M5 1310h288l286 -603h5l286 603h288l-450 -849v-461h-262v474zM486 1536l177 279h284l-250 -279h-211z" />
<glyph unicode="&#xde;" horiz-adv-x="1121" d="M120 0v1310h260v-240h207q147 -1 254 -50.5t164.5 -141.5t57.5 -214q0 -183 -124.5 -292t-340.5 -114h-218v-258h-260zM380 469h201q105 0 163.5 52.5t58.5 142t-57 142.5t-158 54l-208 1v-392z" />
<glyph unicode="&#xdf;" horiz-adv-x="1163" d="M122 -3v991q0 198 111 305t315 107q173 0 276.5 -89.5t103.5 -243.5q0 -55 -24 -116.5t-48 -115.5t-24 -89t27 -70t107 -107q136 -120 136 -252q0 -161 -103.5 -249t-297.5 -88q-73 0 -143.5 14.5t-107.5 35.5l49 207q87 -47 197 -47q71 0 108.5 32t37.5 90 q0 41 -29.5 79.5t-105.5 99.5q-135 107 -135 243q0 61 49.5 168.5t49.5 161t-40 91t-102 37.5q-142 0 -147 -191v-1004h-260z" />
<glyph unicode="&#xe0;" horiz-adv-x="988" d="M45 276.5q0 141.5 110 219t322 77.5h146v77q0 72 -37 110t-104.5 38t-102.5 -31t-35 -86l-254 1v5q-7 127 107.5 215t295 88t287.5 -90t107 -251v-403q0 -131 43 -248h-263q-32 74 -39 146q-96 -165 -265 -165q-152 0 -235 78t-83 219.5zM193 1446l2 5h278l178 -239h-214 zM305 281h1q0 -49 32.5 -78.5t94 -29.5t115.5 33.5t74 80.5v138h-146q-82 0 -126.5 -40.5t-44.5 -103.5z" />
<glyph unicode="&#xe1;" horiz-adv-x="988" d="M45 276.5q0 141.5 110 219t322 77.5h146v77q0 72 -37 110t-104.5 38t-102.5 -31t-35 -86l-254 1v5q-7 127 107.5 215t295 88t287.5 -90t107 -251v-403q0 -131 43 -248h-263q-32 74 -39 146q-96 -165 -265 -165q-152 0 -235 78t-83 219.5zM305 281h1q0 -49 32.5 -78.5 t94 -29.5t115.5 33.5t74 80.5v138h-146q-82 0 -126.5 -40.5t-44.5 -103.5zM396 1226l177 279h284l-250 -279h-211z" />
<glyph unicode="&#xe2;" horiz-adv-x="988" d="M45 276.5q0 141.5 110 219t322 77.5h146v77q0 72 -37 110t-104.5 38t-102.5 -31t-35 -86l-254 1v5q-7 127 107.5 215t295 88t287.5 -90t107 -251v-403q0 -131 43 -248h-263q-32 74 -39 146q-96 -165 -265 -165q-152 0 -235 78t-83 219.5zM153 1244v14l266 249h151 l270 -252v-11h-207l-138 131l-139 -131h-203zM305 281h1q0 -49 32.5 -78.5t94 -29.5t115.5 33.5t74 80.5v138h-146q-82 0 -126.5 -40.5t-44.5 -103.5z" />
<glyph unicode="&#xe3;" horiz-adv-x="988" d="M48 275.5q0 141.5 110 219t322 77.5h146v77q0 72 -37 110t-104.5 38t-102.5 -31t-35 -86l-254 1v5q-7 127 107.5 215t295 88t287.5 -90t107 -251v-403q0 -131 43 -248h-263q-32 74 -39 146q-96 -165 -265 -165q-152 0 -235 78t-83 219.5zM158 1256q0 101 59 170.5 t145 69.5q28 0 51.5 -7t75 -32t72.5 -31t50 -6t51 22.5t22 62.5l153 -11q0 -101 -59 -170t-145 -69q-36 0 -63 8t-72 32.5t-66 31t-50.5 6.5t-50.5 -23t-21 -63zM308 280h1q0 -49 32.5 -78.5t94 -29.5t115.5 33.5t74 80.5v138h-146q-82 0 -126.5 -40.5t-44.5 -103.5z" />
<glyph unicode="&#xe4;" horiz-adv-x="988" d="M45 276.5q0 141.5 110 219t322 77.5h146v77q0 72 -37 110t-104.5 38t-102.5 -31t-35 -86l-254 1v5q-7 127 107.5 215t295 88t287.5 -90t107 -251v-403q0 -131 43 -248h-263q-32 74 -39 146q-96 -165 -265 -165q-152 0 -235 78t-83 219.5zM153 1352.5q0 49.5 34.5 82 t89.5 32.5t89.5 -33.5t34.5 -81.5t-34.5 -80.5t-89 -32.5t-89.5 32t-35 81.5zM305 281h1q0 -49 32.5 -78.5t94 -29.5t115.5 33.5t74 80.5v138h-146q-82 0 -126.5 -40.5t-44.5 -103.5zM591 1352q0 48 35.5 81.5t88.5 33.5t89 -33t36 -81.5t-35 -81.5t-90 -33t-89.5 33 t-34.5 81z" />
<glyph unicode="&#xe5;" horiz-adv-x="988" d="M44 275.5q0 141.5 110 219t322 77.5h146v77q0 72 -37 110t-104.5 38t-102.5 -31t-35 -86l-254 1v5q-7 127 107.5 215t295 88t287.5 -90t107 -251v-403q0 -131 43 -248h-263q-32 74 -39 146q-96 -165 -265 -165q-152 0 -235 78t-83 219.5zM304 280h1q0 -49 32.5 -78.5 t94 -29.5t115.5 33.5t74 80.5v138h-146q-82 0 -126.5 -40.5t-44.5 -103.5zM310 1400q0 77 58 130.5t142.5 53.5t143 -52.5t58.5 -130.5t-57.5 -130t-143.5 -52v-1q-87 0 -144 52.5t-57 129.5zM414 1399.5q0 -41.5 26.5 -69t70.5 -27.5t70.5 27.5t26.5 69t-27 69.5t-70 28 t-70 -28t-27 -69.5z" />
<glyph unicode="&#xe6;" horiz-adv-x="1556" d="M58 284q0 144 112.5 220.5t329.5 77.5h152v51q0 70 -36.5 108t-107.5 38t-114.5 -31t-43.5 -79l-260 17q0 135 117 219.5t305.5 84.5t293.5 -99q114 100 300 99.5t294 -118.5t108 -328v-141h-601q10 -104 72 -159t168 -55q73 0 131.5 15t135.5 54l69 -170h-1 q-65 -50 -162 -79t-200 -29q-221 0 -347 132q-59 -63 -151 -97.5t-204 -34.5q-169 0 -264.5 80t-95.5 224zM319 281q0 -111 149 -111q45 0 96.5 20t87.5 52v170h-148q-84 -1 -134.5 -38t-50.5 -92v-1zM909 578h344v25q0 85 -39.5 130.5t-117.5 45.5t-126.5 -51.5 t-60.5 -149.5z" />
<glyph unicode="&#xe7;" horiz-adv-x="961" d="M49 469v27q0 222 119.5 357.5t333.5 135.5q181 0 290.5 -102.5t105.5 -270.5l-1 -5h-240q0 77 -42 126.5t-113 49.5q-190 0 -190 -290v-28q0 -289 190 -289q71 0 113 41t42 109h239l2 -5q4 -148 -110 -247.5t-286 -99.5q-214 0 -333.5 134.5t-119.5 356.5zM402 -171 l28 129l195 -1l-10 -52q135 -24 135 -155q0 -100 -82.5 -157t-231.5 -57l-7 150q101 0 101 73q0 37 -28.5 51.5t-99.5 18.5z" />
<glyph unicode="&#xe8;" horiz-adv-x="996" d="M63 456v36q0 145 53.5 258t154 176.5t232.5 63.5q196 0 305 -117.5t109 -322.5v-143h-581l-2 -6q7 -99 65 -159.5t148 -60.5t147 16.5t130 56.5l71 -162v-1q-63 -52 -158.5 -82.5t-210.5 -30.5q-210 0 -336.5 133t-126.5 345zM185 1446l2 5h278l178 -239h-214zM334 584 l3 -5h322v24q0 86 -39.5 134.5t-114.5 48.5t-118 -54t-53 -148z" />
<glyph unicode="&#xe9;" horiz-adv-x="996" d="M63 456v36q0 145 53.5 258t154 176.5t232.5 63.5q196 0 305 -117.5t109 -322.5v-143h-581l-2 -6q7 -99 65 -159.5t148 -60.5t147 16.5t130 56.5l71 -162v-1q-63 -52 -158.5 -82.5t-210.5 -30.5q-210 0 -336.5 133t-126.5 345zM334 584l3 -5h322v24q0 86 -39.5 134.5 t-114.5 48.5t-118 -54t-53 -148zM388 1226l177 279h284l-250 -279h-211z" />
<glyph unicode="&#xea;" horiz-adv-x="996" d="M63 456v36q0 145 53.5 258t154 176.5t232.5 63.5q196 0 305 -117.5t109 -322.5v-143h-581l-2 -6q7 -99 65 -159.5t148 -60.5t147 16.5t130 56.5l71 -162v-1q-63 -52 -158.5 -82.5t-210.5 -30.5q-210 0 -336.5 133t-126.5 345zM145 1244v14l266 249h151l270 -252v-11h-207 l-138 131l-139 -131h-203zM334 584l3 -5h322v24q0 86 -39.5 134.5t-114.5 48.5t-118 -54t-53 -148z" />
<glyph unicode="&#xeb;" horiz-adv-x="996" d="M63 456v36q0 145 53.5 258t154 176.5t232.5 63.5q196 0 305 -117.5t109 -322.5v-143h-581l-2 -6q7 -99 65 -159.5t148 -60.5t147 16.5t130 56.5l71 -162v-1q-63 -52 -158.5 -82.5t-210.5 -30.5q-210 0 -336.5 133t-126.5 345zM145 1352.5q0 49.5 34.5 82t89.5 32.5 t89.5 -33.5t34.5 -81.5t-34.5 -80.5t-89 -32.5t-89.5 32t-35 81.5zM334 584l3 -5h322v24q0 86 -39.5 134.5t-114.5 48.5t-118 -54t-53 -148zM583 1352q0 48 35.5 81.5t88.5 33.5t89 -33t36 -81.5t-35 -81.5t-90 -33t-89.5 33t-34.5 81z" />
<glyph unicode="&#xec;" horiz-adv-x="505" d="M-62 1431l2 5h278l178 -239h-214zM130 0v974h260v-974h-260z" />
<glyph unicode="&#xed;" horiz-adv-x="505" d="M109 0v974h260v-974h-260zM119 1211l177 279h284l-250 -279h-211z" />
<glyph unicode="&#xee;" horiz-adv-x="505" d="M-100 1229v14l266 249h151l270 -252v-11h-207l-138 131l-139 -131h-203zM132 0v974h260v-974h-260z" />
<glyph unicode="&#xef;" horiz-adv-x="505" d="M-101 1337.5q0 49.5 34.5 82t89.5 32.5t89.5 -33.5t34.5 -81.5t-34.5 -80.5t-89 -32.5t-89.5 32t-35 81.5zM131 0v974h260v-974h-260zM337 1337q0 48 35.5 81.5t88.5 33.5t89 -33t36 -81.5t-35 -81.5t-90 -33t-89.5 33t-34.5 81z" />
<glyph unicode="&#xf0;" horiz-adv-x="1060" d="M77 418q0 208 109.5 328t296.5 120q122 0 220 -68q-44 137 -149 239l-172 -110l-70 102l136 88q-104 64 -237 100l82 201q214 -42 373 -161l154 98l69 -102l-125 -81q230 -235 231 -589v-67q0 -154 -60 -277.5t-166.5 -191.5t-238 -68t-234 56.5t-161 158t-58.5 224.5z M336 426.5q0 -110.5 54 -174t145 -63.5t145 81.5t54 223.5l-1 100q-59 74 -192 74q-101 0 -153 -65.5t-52 -176z" />
<glyph unicode="&#xf1;" horiz-adv-x="1032" d="M88 -1v974l246 -1l12 -140q101 159 279 159q151 0 232 -95t81 -289v-608h-264v608q0 96 -38.5 138t-120.5 42q-104 0 -164 -81v-707h-263zM178 1256q0 101 59 170.5t145 69.5q28 0 51.5 -7t75 -32t72.5 -31t50 -6t51 22.5t22 62.5l153 -11q0 -101 -59 -170t-145 -69 q-36 0 -63 8t-72 32.5t-66 31t-50.5 6.5t-50.5 -23t-21 -63z" />
<glyph unicode="&#xf2;" horiz-adv-x="1042" d="M54 475v19q0 223 122.5 359.5t336 136.5t337 -136.5t123.5 -359.5v-19q0 -224 -123 -360t-336.5 -136t-336.5 136t-123 360zM218 1446l2 5h278l178 -239h-214zM316 475q0 -139 48.5 -216.5t148.5 -77.5t148.5 78t48.5 216v19q0 136 -49 214.5t-148 78.5t-148 -79 t-49 -214v-19z" />
<glyph unicode="&#xf3;" horiz-adv-x="1042" d="M54 475v19q0 223 122.5 359.5t336 136.5t337 -136.5t123.5 -359.5v-19q0 -224 -123 -360t-336.5 -136t-336.5 136t-123 360zM316 475q0 -139 48.5 -216.5t148.5 -77.5t148.5 78t48.5 216v19q0 136 -49 214.5t-148 78.5t-148 -79t-49 -214v-19zM421 1226l177 279h284 l-250 -279h-211z" />
<glyph unicode="&#xf4;" horiz-adv-x="1042" d="M53 475v19q0 223 122.5 359.5t336 136.5t337 -136.5t123.5 -359.5v-19q0 -224 -123 -360t-336.5 -136t-336.5 136t-123 360zM177 1244v14l266 249h151l270 -252v-11h-207l-138 131l-139 -131h-203zM315 475q0 -139 48.5 -216.5t148.5 -77.5t148.5 78t48.5 216v19 q0 136 -49 214.5t-148 78.5t-148 -79t-49 -214v-19z" />
<glyph unicode="&#xf5;" horiz-adv-x="1042" d="M57 474v19q0 223 122.5 359.5t336 136.5t337 -136.5t123.5 -359.5v-19q0 -224 -123 -360t-336.5 -136t-336.5 136t-123 360zM183 1256q0 101 59 170.5t145 69.5q28 0 51.5 -7t75 -32t72.5 -31t50 -6t51 22.5t22 62.5l153 -11q0 -101 -59 -170t-145 -69q-36 0 -63 8 t-72 32.5t-66 31t-50.5 6.5t-50.5 -23t-21 -63zM319 474q0 -139 48.5 -216.5t148.5 -77.5t148.5 78t48.5 216v19q0 136 -49 214.5t-148 78.5t-148 -79t-49 -214v-19z" />
<glyph unicode="&#xf6;" horiz-adv-x="1042" d="M54 475v19q0 223 122.5 359.5t336 136.5t337 -136.5t123.5 -359.5v-19q0 -224 -123 -360t-336.5 -136t-336.5 136t-123 360zM178 1352.5q0 49.5 34.5 82t89.5 32.5t89.5 -33.5t34.5 -81.5t-34.5 -80.5t-89 -32.5t-89.5 32t-35 81.5zM316 475q0 -139 48.5 -216.5 t148.5 -77.5t148.5 78t48.5 216v19q0 136 -49 214.5t-148 78.5t-148 -79t-49 -214v-19zM616 1352q0 48 35.5 81.5t88.5 33.5t89 -33t36 -81.5t-35 -81.5t-90 -33t-89.5 33t-34.5 81z" />
<glyph unicode="&#xf7;" horiz-adv-x="1051" d="M57 532v204h926v-204h-926zM389 164v210h264v-210h-264zM389 892v210h264v-210h-264z" />
<glyph unicode="&#xf8;" horiz-adv-x="1040" d="M59 483q0 146 56 258t160 174.5t244 62.5q88 0 168 -26l63 128h145l-93 -190q180 -134 180 -427q0 -226 -124.5 -360.5t-336.5 -134.5q-89 0 -158 23l-65 -133h-145l93 191v2q-187 132 -187 432zM320 463q0 -117 36 -187l234 478q-30 13 -71 13q-199 0 -199 -304z M458 187q24 -9 63 -9q201 0 201 304q0 97 -33 176z" />
<glyph unicode="&#xf9;" horiz-adv-x="1031" d="M85 384v588h261v-590q0 -105 35 -152t108 -47q123 0 181 80v709h263v-974h-224l-23 140q-94 -159 -274 -159q-158 0 -242.5 100t-84.5 305zM210 1446l2 5h278l178 -239h-214z" />
<glyph unicode="&#xfa;" horiz-adv-x="1031" d="M85 384v588h261v-590q0 -105 35 -152t108 -47q123 0 181 80v709h263v-974h-224l-23 140q-94 -159 -274 -159q-158 0 -242.5 100t-84.5 305zM413 1226l177 279h284l-250 -279h-211z" />
<glyph unicode="&#xfb;" horiz-adv-x="1031" d="M85 384v588h261v-590q0 -105 35 -152t108 -47q123 0 181 80v709h263v-974h-224l-23 140q-94 -159 -274 -159q-158 0 -242.5 100t-84.5 305zM170 1244v14l266 249h151l270 -252v-11h-207l-138 131l-139 -131h-203z" />
<glyph unicode="&#xfc;" horiz-adv-x="1031" d="M85 384v588h261v-590q0 -105 35 -152t108 -47q123 0 181 80v709h263v-974h-224l-23 140q-94 -159 -274 -159q-158 0 -242.5 100t-84.5 305zM170 1352.5q0 49.5 34.5 82t89.5 32.5t89.5 -33.5t34.5 -81.5t-34.5 -80.5t-89 -32.5t-89.5 32t-35 81.5zM608 1352 q0 48 35.5 81.5t88.5 33.5t89 -33t36 -81.5t-35 -81.5t-90 -33t-89.5 33t-34.5 81z" />
<glyph unicode="&#xfd;" horiz-adv-x="925" d="M5 930h282l164 -565l11 -54h5l186 619h283l-395 -1120q-23 -57 -48.5 -98t-62.5 -77q-76 -72 -214 -72q-43 0 -130 21l30 191l50 -5q110 0 154 112l30 75zM371 1226l177 279h284l-250 -279h-211z" />
<glyph unicode="&#xfe;" horiz-adv-x="1046" d="M103 -416v1757h261v-492q90 101 236 101q180 0 279.5 -131.5t99.5 -369.5v-12q0 -227 -102 -362t-276 -135q-147 0 -237 102v-458h-261zM364 245q48 -95 168 -95h1q186 0 186 305q0 137 -48 210.5t-140 73.5q-120 0 -167 -92v-402z" />
<glyph unicode="&#xff;" horiz-adv-x="925" d="M5 930h282l164 -565l11 -54h5l186 619h283l-395 -1120q-23 -57 -48.5 -98t-62.5 -77q-76 -72 -214 -72q-43 0 -130 21l30 191l50 -5q110 0 154 112l30 75zM128 1352.5q0 49.5 34.5 82t89.5 32.5t89.5 -33.5t34.5 -81.5t-34.5 -80.5t-89 -32.5t-89.5 32t-35 81.5z M566 1352q0 48 35.5 81.5t88.5 33.5t89 -33t36 -81.5t-35 -81.5t-90 -33t-89.5 33t-34.5 81z" />
<glyph unicode="&#x152;" horiz-adv-x="1785" d="M84 505v285q0 157 68 279t191.5 189.5t285.5 67.5q111 0 262 -18h796v-218h-606v-313h517v-211h-517v-351h607l-2 -217h-797q-151 -18 -259 -18q-158 0 -281 65.5t-192 187t-73 272.5zM345 516q0 -158 74.5 -242.5t210.5 -84.5q84 0 178 12v903q-109 13 -180 13 q-136 0 -209.5 -83t-73.5 -239v-279z" />
<glyph unicode="&#x153;" horiz-adv-x="1662" d="M76 482l2 12q0 146 55 258.5t158.5 175t243.5 62.5q208 0 333 -134q119 135 314 134.5t304.5 -116.5t109.5 -329v-142h-589q15 -103 74 -158.5t144.5 -55.5t145 15t132.5 55l71 -168q-65 -52 -163 -81.5t-206 -29.5q-210 0 -335 134q-82 -88 -208.5 -120t-253 0.5 t-208.5 120.5q-124 134 -124 367zM336 475q0 -140 51 -213t148 -73q198 0 198 305q0 138 -52 211.5t-148 73.5q-197 0 -197 -304zM1008 580h330v24h1q0 87 -41 131t-114 44t-117.5 -51t-58.5 -148z" />
<glyph unicode="&#x2c6;" horiz-adv-x="914" d="M111 1244v14l266 249h151l270 -252v-11h-207l-138 131l-139 -131h-203z" />
<glyph unicode="&#x2dc;" horiz-adv-x="887" d="M107 1257q0 101 59 170.5t145 69.5q28 0 51.5 -7t75 -32t72.5 -31t50 -6t51 22.5t22 62.5l153 -11q0 -101 -59 -170t-145 -69q-36 0 -63 8t-72 32.5t-66 31t-50.5 6.5t-50.5 -23t-21 -63z" />
<glyph unicode="&#x2000;" horiz-adv-x="947" />
<glyph unicode="&#x2001;" horiz-adv-x="1894" />
<glyph unicode="&#x2002;" horiz-adv-x="947" />
<glyph unicode="&#x2003;" horiz-adv-x="1894" />
<glyph unicode="&#x2004;" horiz-adv-x="631" />
<glyph unicode="&#x2005;" horiz-adv-x="473" />
<glyph unicode="&#x2006;" horiz-adv-x="315" />
<glyph unicode="&#x2007;" horiz-adv-x="315" />
<glyph unicode="&#x2008;" horiz-adv-x="236" />
<glyph unicode="&#x2009;" horiz-adv-x="378" />
<glyph unicode="&#x200a;" horiz-adv-x="105" />
<glyph unicode="&#x2010;" horiz-adv-x="721" d="M102 510v203h507v-203h-507z" />
<glyph unicode="&#x2011;" horiz-adv-x="721" d="M102 510v203h507v-203h-507z" />
<glyph unicode="&#x2012;" horiz-adv-x="721" d="M102 510v203h507v-203h-507z" />
<glyph unicode="&#x2013;" horiz-adv-x="1272" d="M119 601v184h879v-184h-879z" />
<glyph unicode="&#x2014;" horiz-adv-x="1503" d="M117 601v184h1081v-184h-1081z" />
<glyph unicode="&#x2018;" horiz-adv-x="607" d="M166 915v173l146 316h129l-54 -315v-174h-221z" />
<glyph unicode="&#x2019;" horiz-adv-x="607" d="M173 916l54 313v175h221v-175l-146 -313h-129z" />
<glyph unicode="&#x201a;" horiz-adv-x="457" d="M60 -234q70 112 72 247v163h215l-1 -150l1 -1q-1 -81 -46 -173t-118 -157z" />
<glyph unicode="&#x201c;" horiz-adv-x="911" d="M166 915v173l146 316h129l-54 -315v-174h-221zM469 915v173l146 316h129l-54 -315v-174h-221z" />
<glyph unicode="&#x201d;" horiz-adv-x="918" d="M168 916l54 313v175h221v-175l-146 -313h-129zM476 916l54 313v175h221v-175l-146 -313h-129z" />
<glyph unicode="&#x201e;" horiz-adv-x="743" d="M61 -252q70 117 72 263v194h215l-1 -178q-1 -90 -43.5 -187.5t-113.5 -162.5zM363 -254q78 134 79 265v193h214l-1 -182l1 1q-2 -89 -47.5 -186.5t-116.5 -161.5z" />
<glyph unicode="&#x2022;" horiz-adv-x="663" d="M122 694v81q0 91 58.5 148t156 57t156 -56.5t58.5 -148.5v-81q0 -92 -58 -147.5t-156 -55.5t-156.5 56t-58.5 147z" />
<glyph unicode="&#x2026;" horiz-adv-x="1367" d="M117 0v207h236v-207h-236zM516 0v207h236v-207h-236zM894 0v207h236v-207h-236z" />
<glyph unicode="&#x202f;" horiz-adv-x="378" />
<glyph unicode="&#x2039;" horiz-adv-x="574" d="M97 476v17l252 351h168l-216 -360l216 -359h-168z" />
<glyph unicode="&#x203a;" horiz-adv-x="556" d="M72 124l216 359l-216 360h168l252 -351v-17l-252 -351h-168z" />
<glyph unicode="&#x205f;" horiz-adv-x="473" />
<glyph unicode="&#x20ac;" d="M80 463v136h152v112h-152v137h154q15 227 157 352.5t379 125.5q97 0 213 -28l-33 -219q-85 29 -166 29q-255 0 -279 -260h300v-137h-302v-112h302l-1 -136h-302q5 -135 71.5 -200.5t204.5 -65.5q96 0 171 28l33 -218q-115 -26 -231 -26q-237 0 -374.5 127t-144.5 355 h-152z" />
<glyph unicode="&#x25fc;" horiz-adv-x="975" d="M0 0v975h975v-975h-975z" />
</font>
</defs>
</svg>
